<svg width="64" height="64" viewBox="0 0 64 64" fill="none" xmlns="http://www.w3.org/2000/svg">
<path d="M32 1C23.7783 1 15.8933 4.26606 10.0797 10.0797C4.26606 15.8933 1 23.7783 1 32C1.00995 37.1113 2.2836 42.1407 4.70729 46.6404C4.71154 46.6483 4.70191 46.6564 4.69491 46.6508V46.6508C4.68824 46.6454 4.67914 46.6532 4.68248 46.6611C6.23183 50.307 6.11757 51.3101 5.87189 54.3673C5.70058 56.5047 5.12137 58.6861 4.39695 59.9147C3.74105 61.0258 3.21405 62.1761 3.21405 62.4681C3.21405 63.3736 8.43837 63.0555 13.0639 61.8709C18.2066 60.5543 18.9327 60.4188 22.7865 61.5952L22.9056 61.6344L23.3709 61.7735C23.3761 61.7751 23.3797 61.7681 23.3753 61.7648V61.7648C23.3709 61.7614 23.3745 61.7545 23.3798 61.756C26.1803 62.5743 29.0823 62.9931 32 63C40.2217 63 48.1067 59.7339 53.9203 53.9203C59.7339 48.1067 63 40.2217 63 32C63 23.7783 59.7339 15.8933 53.9203 10.0797C48.1067 4.26606 40.2217 1 32 1Z" fill="url(#paint0_linear_821_23)"/>
<path d="M44.0013 45.28C46.3996 44.2008 47.5162 42.8456 47.9002 40.546C48.1932 38.7924 48.0585 38.3433 44.4089 36.6881C39.769 34.5822 40.0553 34.5727 38.0562 36.9103C37.8561 37.1445 37.6744 37.3532 37.5087 37.5385C36.5652 38.5938 35.1646 38.6999 33.8464 38.1841C30.4673 36.862 27.2954 34.4433 25.5953 31.3741C24.9664 30.2389 25.052 28.9563 25.9217 27.9931V27.9931C27.7305 25.9967 27.7322 25.9459 26.1541 22.28C24.3352 18.0602 23.7205 18.0904 21.7416 18.011C19.7138 17.9333 19.0722 18.2364 17.7905 19.8837C16.4634 21.5897 15.9884 22.9608 16.0002 25.0651C16.0154 27.736 16.9434 29.88 19.6347 33.4491C24.2527 39.5748 28.7595 42.9011 35.2503 44.9721C39.22 46.2401 41.6772 46.3258 44.0013 45.28Z" fill="white"/>
<defs>
<linearGradient id="paint0_linear_821_23" x1="28.0473" y1="5.33016" x2="28.0473" y2="60.6866" gradientUnits="userSpaceOnUse">
<stop stop-color="#45CA7E"/>
<stop offset="1" stop-color="#309C3A"/>
</linearGradient>
</defs>
</svg>
